HIERARCHY
ROOT Hips
{
	OFFSET 0.000000 0.000000 0.000000
	CHANNELS 6 Xposition Yposition Zposition Zrotation Yrotation Xrotation 
	JOINT LHipJoint
	{
		OFFSET 0.000000 0.000000 0.000000
		CHANNELS 3 Zrotation Yrotation Xrotation
		JOINT LeftUpLeg
		{
			OFFSET 1.363060 -1.794630 0.839290
			CHANNELS 3 Zrotation Yrotation Xrotation
			JOINT LeftLeg
			{
				OFFSET 2.448110 -6.726130 0.000000
				CHANNELS 3 Zrotation Yrotation Xrotation
				JOINT LeftFoot
				{
					OFFSET 2.562200 -7.039590 0.000000
					CHANNELS 3 Zrotation Yrotation Xrotation
					JOINT LeftToeBase
					{
						OFFSET 0.157640 -0.433110 2.322550
						CHANNELS 3 Zrotation Yrotation Xrotation
						End Site
						{
							OFFSET 0.000000 0.000000 0.000000
						}
					}
				}
			}
		}
	}
	JOINT RHipJoint
	{
		OFFSET 0.000000 0.000000 0.000000
		CHANNELS 3 Zrotation Yrotation Xrotation
		JOINT RightUpLeg
		{
			OFFSET -1.305520 -1.794630 0.839290
			CHANNELS 3 Zrotation Yrotation Xrotation
			JOINT RightLeg
			{
				OFFSET -2.542530 -6.985550 0.000000
				CHANNELS 3 Zrotation Yrotation Xrotation
				JOINT RightFoot
				{
					OFFSET -2.568260 -7.056230 0.000000
					CHANNELS 3 Zrotation Yrotation Xrotation
					JOINT RightToeBase
					{
						OFFSET -0.164730 -0.452590 2.363150
						CHANNELS 3 Zrotation Yrotation Xrotation
						End Site
						{
							OFFSET 0.000000 0.000000 0.000000
						}
					}
				}
			}
		}
	}
	JOINT LowerBack
	{
		OFFSET 0.000000 0.000000 0.000000
		CHANNELS 3 Zrotation Yrotation Xrotation
		JOINT Spine
		{
			OFFSET 0.028270 2.035590 -0.193380
			CHANNELS 3 Zrotation Yrotation Xrotation
			JOINT Spine1
			{
				OFFSET 0.056720 2.048850 -0.042750
				CHANNELS 3 Zrotation Yrotation Xrotation
				JOINT Neck
				{
					OFFSET 0.000000 0.000000 0.000000
					CHANNELS 3 Zrotation Yrotation Xrotation
					JOINT Neck1
					{
						OFFSET -0.054170 1.746240 0.172020
						CHANNELS 3 Zrotation Yrotation Xrotation
						JOINT Head
						{
							OFFSET 0.104070 1.761360 -0.123970
							CHANNELS 3 Zrotation Yrotation Xrotation
							End Site
							{
								OFFSET 0.000000 0.000000 0.000000
							}
						}
					}
				}
				JOINT LeftShoulder
				{
					OFFSET 0.000000 0.000000 0.000000
					CHANNELS 3 Zrotation Yrotation Xrotation
					JOINT LeftArm
					{
						OFFSET 3.362410 1.200890 -0.311210
						CHANNELS 3 Zrotation Yrotation Xrotation
						JOINT LeftForeArm
						{
							OFFSET 4.983000 -0.000000 -0.000000
							CHANNELS 3 Zrotation Yrotation Xrotation
							JOINT LeftHand
							{
								OFFSET 3.483560 -0.000000 -0.000000
								CHANNELS 3 Zrotation Yrotation Xrotation
								JOINT LeftFingerBase
								{
									OFFSET 0.000000 0.000000 0.000000
									CHANNELS 3 Zrotation Yrotation Xrotation
									JOINT LeftHandIndex1
									{
										OFFSET 0.715260 -0.000000 -0.000000
										CHANNELS 3 Zrotation Yrotation Xrotation
										End Site
										{
											OFFSET 0.000000 0.000000 0.000000
										}
									}
								}
								JOINT LThumb
								{
									OFFSET 0.000000 0.000000 0.000000
									CHANNELS 3 Zrotation Yrotation Xrotation
									End Site
									{
										OFFSET 0.000000 0.000000 0.000000
									}
								}
							}
						}
					}
				}
				JOINT RightShoulder
				{
					OFFSET 0.000000 0.000000 0.000000
					CHANNELS 3 Zrotation Yrotation Xrotation
					JOINT RightArm
					{
						OFFSET -3.136600 1.374050 -0.404650
						CHANNELS 3 Zrotation Yrotation Xrotation
						JOINT RightForeArm
						{
							OFFSET -5.241900 -0.000000 -0.000000
							CHANNELS 3 Zrotation Yrotation Xrotation
							JOINT RightHand
							{
								OFFSET -3.444170 -0.000000 -0.000000
								CHANNELS 3 Zrotation Yrotation Xrotation
								JOINT RightFingerBase
								{
									OFFSET 0.000000 0.000000 0.000000
									CHANNELS 3 Zrotation Yrotation Xrotation
									JOINT RightHandIndex1
									{
										OFFSET -0.622530 -0.000000 -0.000000
										CHANNELS 3 Zrotation Yrotation Xrotation
										End Site
										{
											OFFSET 0.000000 0.000000 0.000000
										}
									}
								}
								JOINT RThumb
								{
									OFFSET 0.000000 0.000000 0.000000
									CHANNELS 3 Zrotation Yrotation Xrotation
									End Site
									{
										OFFSET 0.000000 0.000000 0.000000
									}
								}
							}
						}
					}
				}
			}
		}
	}
}
MOTION
Frames: 7
Frame Time: 0.008333
-44.035300 17.327405 -1.974048 -96.077425 86.960961 -90.319784 18.160181 3.472559 -2.260196 -42.290364 -28.433405 15.794715 -13.951984 -2.332644 -2.077777 0.938904 15.725365 -32.225606 9.931500 -17.371100 -59.259100 -18.841529 -3.463598 -3.438829 31.941600 13.968988 -5.533265 10.852157 -8.132991 18.147550 -1.732715 -1.704809 -22.622468 -0.024000 0.999500 -2.747400 2.727430 0.898505 10.862659 0.842448 2.159354 -5.148053 -0.991065 0.715461 -15.140516 -0.686512 -4.545498 -21.689873 3.855513 -5.970632 16.374468 -0.411100 -2.005000 14.648500 8.582327 -7.650650 0.555485 -88.507464 15.547408 19.109994 17.501301 -30.882075 -6.102715 -0.474335 2.315462 5.029825 27.546242 34.129920 15.635000 -7.125000 0.000000 0.000000 -4.269900 64.585200 -2.026000 -10.024585 7.473845 1.638945 77.771760 -13.775985 44.004421 -21.980462 36.289478 -6.160286 0.731458 -2.576693 -11.580617 -23.177489 -21.607004 7.892200 7.125000 0.000000 0.000000 4.712700 -50.115500 -0.595400 
-44.006756 17.323672 -1.987881 -97.297633 87.111702 -91.550279 18.204700 3.485246 -2.302988 -42.404962 -27.869963 15.619721 -13.984166 -2.299487 -2.019823 0.753363 16.053481 -31.370081 10.368700 -17.612000 -60.713700 -18.831780 -3.486137 -3.434404 31.751180 13.925048 -5.469596 10.812974 -8.139480 18.246256 -1.717283 -1.841412 -22.590553 -0.032900 1.170800 -3.218900 2.534197 0.932536 10.814477 0.846782 2.167430 -5.100022 -0.891034 0.741200 -14.919175 -0.716685 -4.598245 -21.947721 3.861631 -6.047256 16.385383 -0.420200 -2.038600 14.718400 8.592046 -7.631138 0.556975 -88.463597 15.379250 19.320614 17.549945 -30.939739 -6.112973 -0.483066 2.315032 4.805156 27.499510 34.022688 15.560400 -7.125000 0.000000 0.000000 -4.266700 64.461300 -2.012100 -10.050088 7.458546 1.640953 77.751195 -13.567745 43.915286 -21.811813 36.149729 -6.111097 0.730782 -2.583814 -11.632053 -23.253314 -21.892943 8.030700 7.125000 0.000000 0.000000 4.712000 -50.421000 -0.630800 
-43.975796 17.318951 -1.999738 -99.689993 87.159658 -93.954436 18.215038 3.511534 -2.331692 -42.355414 -27.303351 15.404214 -13.993082 -2.238097 -1.901669 0.685201 15.886011 -30.706139 10.719600 -17.795100 -61.867700 -18.829455 -3.500178 -3.428687 31.672005 13.921607 -5.391985 10.778646 -8.174190 18.390538 -1.728133 -1.938883 -22.691396 -0.047500 1.406200 -3.867100 2.432122 0.928206 10.706243 0.855676 2.141828 -5.083297 -0.807982 0.746919 -14.813267 -0.753671 -4.611226 -21.834909 3.888874 -6.044524 16.392259 -0.395700 -2.036700 14.694700 8.607292 -7.623121 0.554375 -88.575841 15.352438 18.962544 17.525679 -30.923880 -6.105555 -0.467467 2.321207 5.073221 27.451362 33.802735 15.434200 -7.125000 0.000000 0.000000 -4.205300 64.218000 -1.959300 -10.059077 7.462664 1.649035 77.779033 -13.698730 43.856244 -21.719381 36.086119 -6.099419 0.728149 -2.594602 -11.685209 -23.487872 -22.310120 8.280100 7.125000 0.000000 0.000000 4.589000 -50.884900 -0.666600 
-43.946374 17.313462 -2.013681 -101.151031 86.965992 -95.386681 18.172594 3.540425 -2.316015 -42.118530 -27.119587 15.319725 -13.971631 -2.200242 -1.804031 0.726164 15.449211 -30.527148 10.813200 -17.842500 -62.173600 -18.841746 -3.495487 -3.433284 31.811101 13.776338 -5.482254 10.739334 -8.285929 18.626298 -1.786565 -1.719983 -22.845067 -0.048500 1.421800 -3.910200 2.508459 0.931321 10.559318 0.889710 2.160611 -5.129958 -0.710120 0.770496 -14.977847 -0.735704 -4.639605 -21.154430 3.904945 -6.054870 16.407163 -0.378100 -2.028000 14.539200 8.628256 -7.633733 0.546160 -88.900097 15.566704 18.013542 17.429734 -30.858196 -6.105772 -0.418026 2.334925 5.950903 27.676984 33.890485 15.597900 -7.125000 0.000000 0.000000 -3.980000 64.355500 -1.866900 -10.036200 7.494946 1.657975 77.803754 -14.218509 43.932930 -21.652464 36.004309 -6.064775 0.713517 -2.591119 -11.597689 -23.559997 -22.118522 8.229100 7.125000 0.000000 0.000000 4.479600 -50.699800 -0.630300 
-43.912011 17.307095 -2.031466 -102.592562 86.897000 -96.729202 18.142475 3.547687 -2.326845 -42.087367 -27.046283 15.263146 -13.931395 -2.133179 -1.687246 1.064870 13.915956 -30.962046 10.565200 -17.715700 -61.361400 -18.825528 -3.498526 -3.457261 31.767646 13.582563 -5.595772 10.693032 -8.355150 18.788858 -1.814860 -1.574629 -22.875641 -0.048700 1.423900 -3.915900 2.614318 0.948051 10.544362 0.896733 2.179725 -5.058818 -0.728607 0.770406 -14.647185 -0.796277 -4.627316 -21.871203 3.953177 -6.055041 16.346610 -0.352000 -2.043400 14.669500 8.624891 -7.619558 0.556661 -88.738109 15.272556 18.760123 17.699592 -31.166879 -6.247737 -0.428265 2.324264 5.029906 28.645133 34.661728 16.511800 -7.125000 0.000000 0.000000 -3.204200 65.395500 -1.579900 -10.071962 7.456846 1.656278 77.785168 -13.772571 43.756709 -21.410777 35.792435 -5.968700 0.701865 -2.590280 -11.382274 -23.379879 -21.906598 8.077400 7.125000 0.000000 0.000000 4.608300 -50.454000 -0.620600 
-43.874684 17.300068 -2.052984 -105.855917 87.093367 -99.936094 18.207351 3.534302 -2.358014 -42.284860 -26.554162 14.903551 -13.996569 -1.990267 -1.441258 0.572700 15.613568 -29.575265 11.332400 -18.093900 -63.856400 -18.799137 -3.514664 -3.444328 31.426561 13.474922 -5.579932 10.629111 -8.346877 18.873012 -1.824112 -1.547816 -22.844474 -0.058800 1.564800 -4.304300 2.288026 0.960272 10.474958 0.904760 2.159127 -5.080699 -0.585320 0.801664 -14.701334 -0.736180 -4.630668 -21.697984 3.876686 -6.067342 16.364943 -0.418800 -2.043600 14.632400 8.633451 -7.622444 0.554249 -88.916632 15.406470 18.540999 17.866596 -31.373392 -6.347465 -0.404665 2.327704 5.175801 29.174636 35.003065 16.983400 -7.125000 0.000000 0.000000 -2.721700 65.879600 -1.372300 -10.059448 7.478632 1.661576 77.800020 -14.048494 43.652674 -21.308199 35.676077 -5.924278 0.701383 -2.587300 -11.206584 -23.225949 -21.930154 8.034200 7.125000 0.000000 0.000000 4.760100 -50.461400 -0.642000 
-43.841968 17.292274 -2.075710 -109.478622 87.208832 -103.544382 18.176376 3.547361 -2.369354 -42.167166 -25.722826 14.236939 -13.955266 -1.678241 -0.908193 0.853893 13.724415 -29.244498 11.120400 -17.993500 -63.171900 -18.732401 -3.517392 -3.426623 31.067226 13.197174 -5.764487 10.485669 -8.485281 19.277325 -1.864932 -1.237650 -22.714195 -0.066500 1.663800 -4.577400 2.051949 0.929294 10.644475 0.905052 2.119587 -5.185496 -0.526018 0.810765 -15.211806 -0.571027 -4.682321 -21.083236 3.769932 -6.166255 16.398822 -0.522600 -2.062100 14.505800 8.622172 -7.651671 0.547657 -89.046603 15.815402 18.281579 17.843662 -31.349616 -6.341378 -0.389543 2.331632 5.463617 29.226192 34.900267 16.967900 -7.125000 0.000000 0.000000 -2.595300 65.783800 -1.302800 -10.017600 7.542443 1.666009 77.889441 -14.624056 43.657189 -21.193882 35.529378 -5.874262 0.696830 -2.589322 -11.084217 -23.217891 -22.008535 8.062800 7.125000 0.000000 0.000000 4.787200 -50.542500 -0.655200 
